<svg width="21" height="36" viewBox="0 0 21 36" fill="none" xmlns="http://www.w3.org/2000/svg">
<path d="M2.01114 36C1.74798 36.0015 1.48712 35.9511 1.2435 35.8515C0.999881 35.752 0.778299 35.6054 0.591462 35.4201C0.404048 35.2342 0.255293 35.0131 0.153779 34.7694C0.052265 34.5257 0 34.2644 0 34.0004C0 33.7365 0.052265 33.4751 0.153779 33.2314C0.255293 32.9878 0.404048 32.7666 0.591462 32.5807L15.1881 18.0041L0.591462 3.4274C0.21494 3.05088 0.00341337 2.54021 0.00341337 2.00773C0.00341337 1.74407 0.0553434 1.48299 0.156241 1.2394C0.257139 0.995814 0.405027 0.774484 0.591462 0.588049C0.777896 0.401615 0.999225 0.253727 1.24281 0.15283C1.4864 0.0519319 1.74748 0 2.01114 0C2.54362 0 3.05429 0.211528 3.43081 0.588049L19.4272 16.5844C19.6146 16.7703 19.7633 16.9914 19.8648 17.2351C19.9664 17.4788 20.0186 17.7401 20.0186 18.0041C20.0186 18.268 19.9664 18.5294 19.8648 18.7731C19.7633 19.0167 19.6146 19.2379 19.4272 19.4237L3.43081 35.4201C3.24398 35.6054 3.02239 35.752 2.77878 35.8515C2.53516 35.9511 2.27429 36.0015 2.01114 36Z" fill="#033517"/>
</svg>
