<svg width="21" height="36" viewBox="0 0 21 36" fill="none" xmlns="http://www.w3.org/2000/svg">
<path d="M18.0074 36C18.2706 36.0015 18.5314 35.9511 18.7751 35.8515C19.0187 35.752 19.2403 35.6054 19.4271 35.4201C19.6145 35.2342 19.7633 35.0131 19.8648 34.7694C19.9663 34.5257 20.0186 34.2644 20.0186 34.0004C20.0186 33.7365 19.9663 33.4751 19.8648 33.2314C19.7633 32.9878 19.6145 32.7666 19.4271 32.5807L4.83042 18.0041L19.4271 3.4274C19.8036 3.05088 20.0151 2.54021 20.0151 2.00773C20.0151 1.74407 19.9632 1.48299 19.8623 1.2394C19.7614 0.995814 19.6135 0.774484 19.4271 0.588049C19.2407 0.401615 19.0193 0.253727 18.7757 0.15283C18.5322 0.0519319 18.2711 0 18.0074 0C17.4749 0 16.9643 0.211528 16.5877 0.588049L0.591395 16.5844C0.403981 16.7703 0.255223 16.9914 0.153708 17.2351C0.0521943 17.4788 -6.88548e-05 17.7401 -6.88548e-05 18.0041C-6.88548e-05 18.268 0.0521943 18.5294 0.153708 18.7731C0.255223 19.0167 0.403981 19.2379 0.591395 19.4237L16.5877 35.4201C16.7746 35.6054 16.9962 35.752 17.2398 35.8515C17.4834 35.9511 17.7443 36.0015 18.0074 36Z" fill="#033517"/>
</svg>
